<mxfile host="app.diagrams.net" agent="Mozilla/5.0 (Windows NT 10.0; Win64; x64) AppleWebKit/537.36 (KHTML, like Gecko) Chrome/132.0.0.0 Safari/537.36 Edg/132.0.0.0" version="28.2.0">
  <diagram id="bssq-uFdxa4itXJ8-cpz" name="第 1 页">
    <mxGraphModel dx="938" dy="658" grid="1" gridSize="10" guides="1" tooltips="1" connect="1" arrows="1" fold="1" page="1" pageScale="1" pageWidth="827" pageHeight="1169" math="0" shadow="0">
      <root>
        <mxCell id="0" />
        <mxCell id="1" parent="0" />
        <mxCell id="ugwE0WGo2Hmw_DpSkdWc-6" value="Data Flow Diagram" style="text;strokeColor=none;fillColor=none;html=1;fontSize=24;fontStyle=1;verticalAlign=middle;align=center;" parent="1" vertex="1">
          <mxGeometry x="40" y="20" width="230" height="60" as="geometry" />
        </mxCell>
        <mxCell id="ugwE0WGo2Hmw_DpSkdWc-7" value="" style="rounded=0;whiteSpace=wrap;html=1;fillColor=none;dashed=1;" parent="1" vertex="1">
          <mxGeometry x="40" y="155" width="170" height="430" as="geometry" />
        </mxCell>
        <mxCell id="ugwE0WGo2Hmw_DpSkdWc-8" value="Sources" style="rounded=1;whiteSpace=wrap;html=1;fontSize=24;strokeColor=none;" parent="1" vertex="1">
          <mxGeometry x="70" y="140" width="110" height="30" as="geometry" />
        </mxCell>
        <mxCell id="ugwE0WGo2Hmw_DpSkdWc-16" style="edgeStyle=orthogonalEdgeStyle;rounded=0;orthogonalLoop=1;jettySize=auto;html=1;" parent="1" source="ugwE0WGo2Hmw_DpSkdWc-9" target="ugwE0WGo2Hmw_DpSkdWc-13" edge="1">
          <mxGeometry relative="1" as="geometry" />
        </mxCell>
        <mxCell id="ugwE0WGo2Hmw_DpSkdWc-22" style="edgeStyle=orthogonalEdgeStyle;rounded=0;orthogonalLoop=1;jettySize=auto;html=1;entryX=0;entryY=0.5;entryDx=0;entryDy=0;" parent="1" source="ugwE0WGo2Hmw_DpSkdWc-9" target="ugwE0WGo2Hmw_DpSkdWc-14" edge="1">
          <mxGeometry relative="1" as="geometry" />
        </mxCell>
        <mxCell id="ugwE0WGo2Hmw_DpSkdWc-23" style="edgeStyle=orthogonalEdgeStyle;rounded=0;orthogonalLoop=1;jettySize=auto;html=1;entryX=0;entryY=0.5;entryDx=0;entryDy=0;" parent="1" source="ugwE0WGo2Hmw_DpSkdWc-9" target="ugwE0WGo2Hmw_DpSkdWc-15" edge="1">
          <mxGeometry relative="1" as="geometry" />
        </mxCell>
        <mxCell id="ugwE0WGo2Hmw_DpSkdWc-9" value="CRM" style="image;aspect=fixed;html=1;points=[];align=center;fontSize=20;image=img/lib/azure2/general/Folder_Blank.svg;" parent="1" vertex="1">
          <mxGeometry x="91" y="250" width="69" height="56.00000000000001" as="geometry" />
        </mxCell>
        <mxCell id="ugwE0WGo2Hmw_DpSkdWc-27" style="edgeStyle=orthogonalEdgeStyle;rounded=0;orthogonalLoop=1;jettySize=auto;html=1;" parent="1" source="ugwE0WGo2Hmw_DpSkdWc-10" target="ugwE0WGo2Hmw_DpSkdWc-24" edge="1">
          <mxGeometry relative="1" as="geometry" />
        </mxCell>
        <mxCell id="ugwE0WGo2Hmw_DpSkdWc-28" style="edgeStyle=orthogonalEdgeStyle;rounded=0;orthogonalLoop=1;jettySize=auto;html=1;entryX=0;entryY=0.5;entryDx=0;entryDy=0;" parent="1" source="ugwE0WGo2Hmw_DpSkdWc-10" target="ugwE0WGo2Hmw_DpSkdWc-25" edge="1">
          <mxGeometry relative="1" as="geometry" />
        </mxCell>
        <mxCell id="ugwE0WGo2Hmw_DpSkdWc-29" style="edgeStyle=orthogonalEdgeStyle;rounded=0;orthogonalLoop=1;jettySize=auto;html=1;entryX=0;entryY=0.5;entryDx=0;entryDy=0;" parent="1" source="ugwE0WGo2Hmw_DpSkdWc-10" target="ugwE0WGo2Hmw_DpSkdWc-26" edge="1">
          <mxGeometry relative="1" as="geometry" />
        </mxCell>
        <mxCell id="ugwE0WGo2Hmw_DpSkdWc-10" value="ERP" style="image;aspect=fixed;html=1;points=[];align=center;fontSize=20;image=img/lib/azure2/general/Folder_Blank.svg;" parent="1" vertex="1">
          <mxGeometry x="91" y="405" width="69" height="56.00000000000001" as="geometry" />
        </mxCell>
        <mxCell id="ugwE0WGo2Hmw_DpSkdWc-11" value="" style="rounded=1;whiteSpace=wrap;html=1;fillColor=#ffe6cc;strokeColor=#d79b00;fillStyle=hatch;" parent="1" vertex="1">
          <mxGeometry x="310" y="200" width="220" height="390" as="geometry" />
        </mxCell>
        <mxCell id="ugwE0WGo2Hmw_DpSkdWc-12" value="stage layer" style="rounded=1;whiteSpace=wrap;html=1;fillColor=#ffe6cc;strokeColor=#d79b00;fontSize=20;" parent="1" vertex="1">
          <mxGeometry x="310" y="150" width="220" height="40" as="geometry" />
        </mxCell>
        <mxCell id="NE2MVW02L-52Gz1wehXK-17" style="edgeStyle=orthogonalEdgeStyle;rounded=0;orthogonalLoop=1;jettySize=auto;html=1;" parent="1" source="ugwE0WGo2Hmw_DpSkdWc-13" target="NE2MVW02L-52Gz1wehXK-3" edge="1">
          <mxGeometry relative="1" as="geometry" />
        </mxCell>
        <mxCell id="ugwE0WGo2Hmw_DpSkdWc-13" value="crm_sales_details" style="rounded=1;whiteSpace=wrap;html=1;fillColor=#ffe6cc;strokeColor=#d79b00;fontSize=20;" parent="1" vertex="1">
          <mxGeometry x="327" y="230" width="190" height="40" as="geometry" />
        </mxCell>
        <mxCell id="NE2MVW02L-52Gz1wehXK-18" style="edgeStyle=orthogonalEdgeStyle;rounded=0;orthogonalLoop=1;jettySize=auto;html=1;entryX=0;entryY=0.5;entryDx=0;entryDy=0;" parent="1" source="ugwE0WGo2Hmw_DpSkdWc-14" target="NE2MVW02L-52Gz1wehXK-4" edge="1">
          <mxGeometry relative="1" as="geometry" />
        </mxCell>
        <mxCell id="ugwE0WGo2Hmw_DpSkdWc-14" value="crm_cust_info" style="rounded=1;whiteSpace=wrap;html=1;fillColor=#ffe6cc;strokeColor=#d79b00;fontSize=20;" parent="1" vertex="1">
          <mxGeometry x="327" y="290" width="190" height="40" as="geometry" />
        </mxCell>
        <mxCell id="NE2MVW02L-52Gz1wehXK-19" style="edgeStyle=orthogonalEdgeStyle;rounded=0;orthogonalLoop=1;jettySize=auto;html=1;entryX=0;entryY=0.5;entryDx=0;entryDy=0;" parent="1" source="ugwE0WGo2Hmw_DpSkdWc-15" target="NE2MVW02L-52Gz1wehXK-5" edge="1">
          <mxGeometry relative="1" as="geometry" />
        </mxCell>
        <mxCell id="ugwE0WGo2Hmw_DpSkdWc-15" value="crm_prd_info" style="rounded=1;whiteSpace=wrap;html=1;fillColor=#ffe6cc;strokeColor=#d79b00;fontSize=20;" parent="1" vertex="1">
          <mxGeometry x="325" y="350" width="190" height="40" as="geometry" />
        </mxCell>
        <mxCell id="NE2MVW02L-52Gz1wehXK-20" style="edgeStyle=orthogonalEdgeStyle;rounded=0;orthogonalLoop=1;jettySize=auto;html=1;entryX=0;entryY=0.5;entryDx=0;entryDy=0;" parent="1" source="ugwE0WGo2Hmw_DpSkdWc-24" target="NE2MVW02L-52Gz1wehXK-6" edge="1">
          <mxGeometry relative="1" as="geometry" />
        </mxCell>
        <mxCell id="ugwE0WGo2Hmw_DpSkdWc-24" value="erp_cust_az12" style="rounded=1;whiteSpace=wrap;html=1;fillColor=#ffe6cc;strokeColor=#d79b00;fontSize=20;" parent="1" vertex="1">
          <mxGeometry x="326" y="405" width="190" height="40" as="geometry" />
        </mxCell>
        <mxCell id="NE2MVW02L-52Gz1wehXK-21" style="edgeStyle=orthogonalEdgeStyle;rounded=0;orthogonalLoop=1;jettySize=auto;html=1;entryX=0;entryY=0.5;entryDx=0;entryDy=0;" parent="1" source="ugwE0WGo2Hmw_DpSkdWc-25" target="NE2MVW02L-52Gz1wehXK-7" edge="1">
          <mxGeometry relative="1" as="geometry" />
        </mxCell>
        <mxCell id="ugwE0WGo2Hmw_DpSkdWc-25" value="erp_loc_a101" style="rounded=1;whiteSpace=wrap;html=1;fillColor=#ffe6cc;strokeColor=#d79b00;fontSize=20;" parent="1" vertex="1">
          <mxGeometry x="326" y="465" width="190" height="40" as="geometry" />
        </mxCell>
        <mxCell id="NE2MVW02L-52Gz1wehXK-22" style="edgeStyle=orthogonalEdgeStyle;rounded=0;orthogonalLoop=1;jettySize=auto;html=1;entryX=0;entryY=0.5;entryDx=0;entryDy=0;" parent="1" source="ugwE0WGo2Hmw_DpSkdWc-26" target="NE2MVW02L-52Gz1wehXK-8" edge="1">
          <mxGeometry relative="1" as="geometry" />
        </mxCell>
        <mxCell id="ugwE0WGo2Hmw_DpSkdWc-26" value="erp_px_cat_g1v2" style="rounded=1;whiteSpace=wrap;html=1;fillColor=#ffe6cc;strokeColor=#d79b00;fontSize=20;" parent="1" vertex="1">
          <mxGeometry x="324" y="525" width="190" height="40" as="geometry" />
        </mxCell>
        <mxCell id="NE2MVW02L-52Gz1wehXK-1" value="" style="rounded=1;whiteSpace=wrap;html=1;fillColor=#f5f5f5;strokeColor=#666666;fillStyle=hatch;fontColor=#333333;" parent="1" vertex="1">
          <mxGeometry x="600" y="200" width="220" height="390" as="geometry" />
        </mxCell>
        <mxCell id="NE2MVW02L-52Gz1wehXK-2" value="EDW layer" style="rounded=1;whiteSpace=wrap;html=1;fillColor=#f5f5f5;strokeColor=#666666;fontSize=20;fontColor=#333333;" parent="1" vertex="1">
          <mxGeometry x="600" y="150" width="220" height="40" as="geometry" />
        </mxCell>
        <mxCell id="NE2MVW02L-52Gz1wehXK-3" value="crm_sales_details" style="rounded=1;whiteSpace=wrap;html=1;fillColor=#f5f5f5;strokeColor=#666666;fontSize=20;fontColor=#333333;" parent="1" vertex="1">
          <mxGeometry x="617" y="230" width="190" height="40" as="geometry" />
        </mxCell>
        <mxCell id="NE2MVW02L-52Gz1wehXK-4" value="crm_cust_info" style="rounded=1;whiteSpace=wrap;html=1;fillColor=#f5f5f5;strokeColor=#666666;fontSize=20;fontColor=#333333;" parent="1" vertex="1">
          <mxGeometry x="617" y="290" width="190" height="40" as="geometry" />
        </mxCell>
        <mxCell id="NE2MVW02L-52Gz1wehXK-5" value="crm_prd_info" style="rounded=1;whiteSpace=wrap;html=1;fillColor=#f5f5f5;strokeColor=#666666;fontSize=20;fontColor=#333333;" parent="1" vertex="1">
          <mxGeometry x="615" y="350" width="190" height="40" as="geometry" />
        </mxCell>
        <mxCell id="NE2MVW02L-52Gz1wehXK-6" value="erp_cust_az12" style="rounded=1;whiteSpace=wrap;html=1;fillColor=#f5f5f5;strokeColor=#666666;fontSize=20;fontColor=#333333;" parent="1" vertex="1">
          <mxGeometry x="616" y="405" width="190" height="40" as="geometry" />
        </mxCell>
        <mxCell id="NE2MVW02L-52Gz1wehXK-7" value="erp_loc_a101" style="rounded=1;whiteSpace=wrap;html=1;fillColor=#f5f5f5;strokeColor=#666666;fontSize=20;fontColor=#333333;" parent="1" vertex="1">
          <mxGeometry x="616" y="465" width="190" height="40" as="geometry" />
        </mxCell>
        <mxCell id="NE2MVW02L-52Gz1wehXK-8" value="erp_px_cat_g1v2" style="rounded=1;whiteSpace=wrap;html=1;fillColor=#f5f5f5;strokeColor=#666666;fontSize=20;fontColor=#333333;" parent="1" vertex="1">
          <mxGeometry x="614" y="525" width="190" height="40" as="geometry" />
        </mxCell>
        <mxCell id="NE2MVW02L-52Gz1wehXK-9" value="" style="rounded=1;whiteSpace=wrap;html=1;fillColor=#fff2cc;strokeColor=#d6b656;fillStyle=hatch;" parent="1" vertex="1">
          <mxGeometry x="900" y="200" width="220" height="390" as="geometry" />
        </mxCell>
        <mxCell id="NE2MVW02L-52Gz1wehXK-10" value="data_marts layer" style="rounded=1;whiteSpace=wrap;html=1;fillColor=#fff2cc;strokeColor=#d6b656;fontSize=20;" parent="1" vertex="1">
          <mxGeometry x="900" y="150" width="220" height="40" as="geometry" />
        </mxCell>
        <mxCell id="NE2MVW02L-52Gz1wehXK-11" value="fact_sales" style="rounded=1;whiteSpace=wrap;html=1;fillColor=#fff2cc;strokeColor=#d6b656;fontSize=20;" parent="1" vertex="1">
          <mxGeometry x="916" y="250" width="190" height="40" as="geometry" />
        </mxCell>
        <mxCell id="NE2MVW02L-52Gz1wehXK-12" value="dim_customers" style="rounded=1;whiteSpace=wrap;html=1;fillColor=#fff2cc;strokeColor=#d6b656;fontSize=20;" parent="1" vertex="1">
          <mxGeometry x="916" y="360" width="190" height="40" as="geometry" />
        </mxCell>
        <mxCell id="NE2MVW02L-52Gz1wehXK-13" value="dim_products" style="rounded=1;whiteSpace=wrap;html=1;fillColor=#fff2cc;strokeColor=#d6b656;fontSize=20;" parent="1" vertex="1">
          <mxGeometry x="916" y="485" width="190" height="40" as="geometry" />
        </mxCell>
        <mxCell id="FDBhS9QVJ79799i7OrCX-1" value="" style="endArrow=classic;html=1;rounded=0;exitX=1;exitY=0.5;exitDx=0;exitDy=0;entryX=0;entryY=0.5;entryDx=0;entryDy=0;jumpStyle=gap;" edge="1" parent="1" source="NE2MVW02L-52Gz1wehXK-3" target="NE2MVW02L-52Gz1wehXK-11">
          <mxGeometry width="50" height="50" relative="1" as="geometry">
            <mxPoint x="850" y="370" as="sourcePoint" />
            <mxPoint x="900" y="320" as="targetPoint" />
          </mxGeometry>
        </mxCell>
        <mxCell id="FDBhS9QVJ79799i7OrCX-2" value="" style="endArrow=classic;html=1;rounded=0;exitX=1;exitY=0.5;exitDx=0;exitDy=0;entryX=0;entryY=0.5;entryDx=0;entryDy=0;jumpStyle=gap;" edge="1" parent="1" target="NE2MVW02L-52Gz1wehXK-12">
          <mxGeometry width="50" height="50" relative="1" as="geometry">
            <mxPoint x="807" y="315" as="sourcePoint" />
            <mxPoint x="916" y="400" as="targetPoint" />
          </mxGeometry>
        </mxCell>
        <mxCell id="FDBhS9QVJ79799i7OrCX-3" value="" style="endArrow=classic;html=1;rounded=0;exitX=1;exitY=0.5;exitDx=0;exitDy=0;entryX=0;entryY=0.5;entryDx=0;entryDy=0;jumpStyle=gap;" edge="1" parent="1" target="NE2MVW02L-52Gz1wehXK-13">
          <mxGeometry width="50" height="50" relative="1" as="geometry">
            <mxPoint x="806" y="375" as="sourcePoint" />
            <mxPoint x="915" y="460" as="targetPoint" />
          </mxGeometry>
        </mxCell>
        <mxCell id="FDBhS9QVJ79799i7OrCX-4" value="" style="endArrow=classic;html=1;rounded=0;exitX=1;exitY=0.5;exitDx=0;exitDy=0;jumpStyle=gap;" edge="1" parent="1" source="NE2MVW02L-52Gz1wehXK-6">
          <mxGeometry width="50" height="50" relative="1" as="geometry">
            <mxPoint x="880" y="420" as="sourcePoint" />
            <mxPoint x="910" y="380" as="targetPoint" />
          </mxGeometry>
        </mxCell>
        <mxCell id="FDBhS9QVJ79799i7OrCX-5" value="" style="endArrow=classic;html=1;rounded=0;exitX=1;exitY=0.5;exitDx=0;exitDy=0;entryX=0;entryY=0.5;entryDx=0;entryDy=0;jumpStyle=gap;" edge="1" parent="1" source="NE2MVW02L-52Gz1wehXK-8" target="NE2MVW02L-52Gz1wehXK-13">
          <mxGeometry width="50" height="50" relative="1" as="geometry">
            <mxPoint x="880" y="430" as="sourcePoint" />
            <mxPoint x="910" y="460" as="targetPoint" />
          </mxGeometry>
        </mxCell>
        <mxCell id="FDBhS9QVJ79799i7OrCX-7" value="" style="endArrow=classic;html=1;rounded=0;exitX=1;exitY=0.5;exitDx=0;exitDy=0;entryX=0;entryY=0.5;entryDx=0;entryDy=0;jumpStyle=gap;" edge="1" parent="1" source="NE2MVW02L-52Gz1wehXK-7" target="NE2MVW02L-52Gz1wehXK-12">
          <mxGeometry width="50" height="50" relative="1" as="geometry">
            <mxPoint x="880" y="615" as="sourcePoint" />
            <mxPoint x="920" y="400" as="targetPoint" />
          </mxGeometry>
        </mxCell>
      </root>
    </mxGraphModel>
  </diagram>
</mxfile>
